<mxfile host="app.diagrams.net" agent="Mozilla/5.0 (Windows NT 10.0; Win64; x64) AppleWebKit/537.36 (KHTML, like Gecko) Chrome/127.0.0.0 Safari/537.36" version="24.7.6">
  <diagram name="Page-1" id="huhRIpAm3bDRnNeTqgfH">
    <mxGraphModel dx="1444" dy="811" grid="0" gridSize="10" guides="1" tooltips="1" connect="1" arrows="1" fold="1" page="1" pageScale="1" pageWidth="850" pageHeight="1100" math="0" shadow="0">
      <root>
        <mxCell id="0" />
        <mxCell id="1" parent="0" />
        <mxCell id="0YOe47nfLTG_FIqff17c-1" value="" style="group" vertex="1" connectable="0" parent="1">
          <mxGeometry x="147" y="268" width="560" height="590" as="geometry" />
        </mxCell>
        <mxCell id="JiKG6f25SsfxNfvE5poe-1" value="" style="rounded=0;whiteSpace=wrap;html=1;fillColor=#f5f5f5;strokeColor=#666666;fontColor=#333333;" parent="0YOe47nfLTG_FIqff17c-1" vertex="1">
          <mxGeometry width="560" height="370" as="geometry" />
        </mxCell>
        <mxCell id="JiKG6f25SsfxNfvE5poe-6" style="edgeStyle=orthogonalEdgeStyle;rounded=0;orthogonalLoop=1;jettySize=auto;html=1;" parent="0YOe47nfLTG_FIqff17c-1" source="JiKG6f25SsfxNfvE5poe-2" target="JiKG6f25SsfxNfvE5poe-4" edge="1">
          <mxGeometry relative="1" as="geometry" />
        </mxCell>
        <mxCell id="JiKG6f25SsfxNfvE5poe-2" value="Amazon EKS" style="sketch=0;outlineConnect=0;fontColor=#232F3E;gradientColor=none;strokeColor=#ffffff;fillColor=#232F3E;dashed=0;verticalLabelPosition=middle;verticalAlign=bottom;align=center;html=1;whiteSpace=wrap;fontSize=10;fontStyle=1;spacing=3;shape=mxgraph.aws4.productIcon;prIcon=mxgraph.aws4.eks;" parent="0YOe47nfLTG_FIqff17c-1" vertex="1">
          <mxGeometry x="90" y="80" width="80" height="100" as="geometry" />
        </mxCell>
        <mxCell id="JiKG6f25SsfxNfvE5poe-3" value="" style="outlineConnect=0;dashed=0;verticalLabelPosition=bottom;verticalAlign=top;align=center;html=1;shape=mxgraph.aws3.ec2;fillColor=#F58534;gradientColor=none;" parent="0YOe47nfLTG_FIqff17c-1" vertex="1">
          <mxGeometry x="305" y="10" width="60" height="70" as="geometry" />
        </mxCell>
        <mxCell id="JiKG6f25SsfxNfvE5poe-4" value="" style="outlineConnect=0;dashed=0;verticalLabelPosition=bottom;verticalAlign=top;align=center;html=1;shape=mxgraph.aws3.ec2;fillColor=#F58534;gradientColor=none;" parent="0YOe47nfLTG_FIqff17c-1" vertex="1">
          <mxGeometry x="305" y="95" width="60" height="70" as="geometry" />
        </mxCell>
        <mxCell id="JiKG6f25SsfxNfvE5poe-5" value="" style="outlineConnect=0;dashed=0;verticalLabelPosition=bottom;verticalAlign=top;align=center;html=1;shape=mxgraph.aws3.ec2;fillColor=#F58534;gradientColor=none;" parent="0YOe47nfLTG_FIqff17c-1" vertex="1">
          <mxGeometry x="305" y="190" width="60" height="70" as="geometry" />
        </mxCell>
        <mxCell id="JiKG6f25SsfxNfvE5poe-7" style="edgeStyle=orthogonalEdgeStyle;rounded=0;orthogonalLoop=1;jettySize=auto;html=1;entryX=0;entryY=0.5;entryDx=0;entryDy=0;entryPerimeter=0;" parent="0YOe47nfLTG_FIqff17c-1" source="JiKG6f25SsfxNfvE5poe-2" target="JiKG6f25SsfxNfvE5poe-3" edge="1">
          <mxGeometry relative="1" as="geometry" />
        </mxCell>
        <mxCell id="JiKG6f25SsfxNfvE5poe-8" style="edgeStyle=orthogonalEdgeStyle;rounded=0;orthogonalLoop=1;jettySize=auto;html=1;entryX=0;entryY=0.5;entryDx=0;entryDy=0;entryPerimeter=0;" parent="0YOe47nfLTG_FIqff17c-1" source="JiKG6f25SsfxNfvE5poe-2" target="JiKG6f25SsfxNfvE5poe-5" edge="1">
          <mxGeometry relative="1" as="geometry" />
        </mxCell>
        <mxCell id="JiKG6f25SsfxNfvE5poe-9" value="&lt;b&gt;EBS&lt;/b&gt;" style="shape=cylinder3;whiteSpace=wrap;html=1;boundedLbl=1;backgroundOutline=1;size=15;fillColor=#f8cecc;strokeColor=#b85450;" parent="0YOe47nfLTG_FIqff17c-1" vertex="1">
          <mxGeometry x="225" y="470" width="110" height="120" as="geometry" />
        </mxCell>
        <mxCell id="JiKG6f25SsfxNfvE5poe-10" style="edgeStyle=orthogonalEdgeStyle;rounded=0;orthogonalLoop=1;jettySize=auto;html=1;entryX=0.5;entryY=0;entryDx=0;entryDy=0;entryPerimeter=0;exitX=0.5;exitY=1;exitDx=0;exitDy=0;exitPerimeter=0;" parent="0YOe47nfLTG_FIqff17c-1" source="JiKG6f25SsfxNfvE5poe-17" target="JiKG6f25SsfxNfvE5poe-9" edge="1">
          <mxGeometry relative="1" as="geometry" />
        </mxCell>
        <mxCell id="JiKG6f25SsfxNfvE5poe-13" value="&lt;b&gt;us-east-1c&lt;/b&gt;" style="text;html=1;align=center;verticalAlign=middle;resizable=0;points=[];autosize=1;strokeColor=none;fillColor=none;" parent="0YOe47nfLTG_FIqff17c-1" vertex="1">
          <mxGeometry x="380" y="210" width="80" height="30" as="geometry" />
        </mxCell>
        <mxCell id="JiKG6f25SsfxNfvE5poe-14" value="&lt;b&gt;us-east-1b&lt;/b&gt;" style="text;html=1;align=center;verticalAlign=middle;resizable=0;points=[];autosize=1;strokeColor=none;fillColor=none;" parent="0YOe47nfLTG_FIqff17c-1" vertex="1">
          <mxGeometry x="380" y="108" width="80" height="30" as="geometry" />
        </mxCell>
        <mxCell id="JiKG6f25SsfxNfvE5poe-15" value="&lt;b&gt;us-east-1a&lt;/b&gt;" style="text;html=1;align=center;verticalAlign=middle;resizable=0;points=[];autosize=1;strokeColor=none;fillColor=none;" parent="0YOe47nfLTG_FIqff17c-1" vertex="1">
          <mxGeometry x="380" y="30" width="80" height="30" as="geometry" />
        </mxCell>
        <mxCell id="JiKG6f25SsfxNfvE5poe-16" value="&lt;b&gt;us-east-1c&lt;/b&gt;" style="text;html=1;align=center;verticalAlign=middle;resizable=0;points=[];autosize=1;strokeColor=none;fillColor=none;" parent="0YOe47nfLTG_FIqff17c-1" vertex="1">
          <mxGeometry x="350" y="510" width="80" height="30" as="geometry" />
        </mxCell>
        <mxCell id="JiKG6f25SsfxNfvE5poe-17" value="" style="aspect=fixed;sketch=0;html=1;dashed=0;whitespace=wrap;verticalLabelPosition=bottom;verticalAlign=top;fillColor=#2875E2;strokeColor=#ffffff;points=[[0.005,0.63,0],[0.1,0.2,0],[0.9,0.2,0],[0.5,0,0],[0.995,0.63,0],[0.72,0.99,0],[0.5,1,0],[0.28,0.99,0]];shape=mxgraph.kubernetes.icon2;prIcon=pv" parent="0YOe47nfLTG_FIqff17c-1" vertex="1">
          <mxGeometry x="248.75" y="270" width="62.5" height="60" as="geometry" />
        </mxCell>
        <mxCell id="JiKG6f25SsfxNfvE5poe-22" value="&lt;b&gt;PV&lt;/b&gt;" style="text;html=1;align=center;verticalAlign=middle;resizable=0;points=[];autosize=1;strokeColor=none;fillColor=none;" parent="0YOe47nfLTG_FIqff17c-1" vertex="1">
          <mxGeometry x="300" y="320" width="40" height="30" as="geometry" />
        </mxCell>
        <mxCell id="JiKG6f25SsfxNfvE5poe-23" value="" style="aspect=fixed;sketch=0;html=1;dashed=0;whitespace=wrap;verticalLabelPosition=bottom;verticalAlign=top;fillColor=#2875E2;strokeColor=#ffffff;points=[[0.005,0.63,0],[0.1,0.2,0],[0.9,0.2,0],[0.5,0,0],[0.995,0.63,0],[0.72,0.99,0],[0.5,1,0],[0.28,0.99,0]];shape=mxgraph.kubernetes.icon2;kubernetesLabel=1;prIcon=pvc" parent="0YOe47nfLTG_FIqff17c-1" vertex="1">
          <mxGeometry x="150" y="275" width="52.08" height="50" as="geometry" />
        </mxCell>
        <mxCell id="JiKG6f25SsfxNfvE5poe-24" style="edgeStyle=orthogonalEdgeStyle;rounded=0;orthogonalLoop=1;jettySize=auto;html=1;entryX=0.071;entryY=0.533;entryDx=0;entryDy=0;entryPerimeter=0;" parent="0YOe47nfLTG_FIqff17c-1" source="JiKG6f25SsfxNfvE5poe-23" target="JiKG6f25SsfxNfvE5poe-17" edge="1">
          <mxGeometry relative="1" as="geometry" />
        </mxCell>
        <mxCell id="JiKG6f25SsfxNfvE5poe-26" style="edgeStyle=orthogonalEdgeStyle;rounded=0;orthogonalLoop=1;jettySize=auto;html=1;" parent="0YOe47nfLTG_FIqff17c-1" source="JiKG6f25SsfxNfvE5poe-25" target="JiKG6f25SsfxNfvE5poe-23" edge="1">
          <mxGeometry relative="1" as="geometry" />
        </mxCell>
        <mxCell id="JiKG6f25SsfxNfvE5poe-25" value="" style="aspect=fixed;sketch=0;html=1;dashed=0;whitespace=wrap;verticalLabelPosition=bottom;verticalAlign=top;fillColor=#2875E2;strokeColor=#ffffff;points=[[0.005,0.63,0],[0.1,0.2,0],[0.9,0.2,0],[0.5,0,0],[0.995,0.63,0],[0.72,0.99,0],[0.5,1,0],[0.28,0.99,0]];shape=mxgraph.kubernetes.icon2;prIcon=pod" parent="0YOe47nfLTG_FIqff17c-1" vertex="1">
          <mxGeometry x="60" y="276" width="50" height="48" as="geometry" />
        </mxCell>
        <mxCell id="JiKG6f25SsfxNfvE5poe-27" value="&lt;b&gt;Pod&lt;/b&gt;" style="text;html=1;align=center;verticalAlign=middle;resizable=0;points=[];autosize=1;strokeColor=none;fillColor=none;" parent="0YOe47nfLTG_FIqff17c-1" vertex="1">
          <mxGeometry x="60" y="325" width="50" height="30" as="geometry" />
        </mxCell>
        <mxCell id="JiKG6f25SsfxNfvE5poe-28" value="&lt;b&gt;PVC&lt;/b&gt;" style="text;html=1;align=center;verticalAlign=middle;resizable=0;points=[];autosize=1;strokeColor=none;fillColor=none;" parent="0YOe47nfLTG_FIqff17c-1" vertex="1">
          <mxGeometry x="150" y="324" width="50" height="30" as="geometry" />
        </mxCell>
      </root>
    </mxGraphModel>
  </diagram>
</mxfile>
